<mxfile host="app.diagrams.net" modified="2020-07-21T14:01:17.276Z" agent="5.0 (Windows NT 10.0; Win64; x64) AppleWebKit/537.36 (KHTML, like Gecko) Chrome/83.0.4103.116 Safari/537.36" etag="Oqdb69UBABAO8vzIi9NS" version="13.4.8" type="github">
  <diagram id="_dT-LqT8-qKAIrb4Yfiq" name="Page-1">
    <mxGraphModel dx="1422" dy="762" grid="1" gridSize="10" guides="1" tooltips="1" connect="1" arrows="1" fold="1" page="1" pageScale="1" pageWidth="1169" pageHeight="1654" math="0" shadow="0">
      <root>
        <mxCell id="0" />
        <mxCell id="1" parent="0" />
        <mxCell id="1lI46nXgrd9c-tzyUQ7b-1" value="" style="endArrow=classic;html=1;" edge="1" parent="1">
          <mxGeometry width="50" height="50" relative="1" as="geometry">
            <mxPoint x="60" y="80" as="sourcePoint" />
            <mxPoint x="170" y="80" as="targetPoint" />
          </mxGeometry>
        </mxCell>
        <mxCell id="1lI46nXgrd9c-tzyUQ7b-2" value="&lt;font style=&quot;font-size: 14px&quot;&gt;start: int&amp;nbsp; end: int&lt;/font&gt;" style="text;html=1;strokeColor=none;fillColor=none;align=center;verticalAlign=middle;whiteSpace=wrap;rounded=0;" vertex="1" parent="1">
          <mxGeometry x="50" y="58" width="130" height="20" as="geometry" />
        </mxCell>
        <mxCell id="1lI46nXgrd9c-tzyUQ7b-3" value="&lt;font style=&quot;font-size: 14px&quot;&gt;createMultiplyTable&lt;/font&gt;" style="rounded=0;whiteSpace=wrap;html=1;" vertex="1" parent="1">
          <mxGeometry x="180" y="70" width="130" height="250" as="geometry" />
        </mxCell>
        <mxCell id="1lI46nXgrd9c-tzyUQ7b-5" value="&lt;font style=&quot;font-size: 14px&quot;&gt;isValid&lt;/font&gt;" style="rounded=0;whiteSpace=wrap;html=1;" vertex="1" parent="1">
          <mxGeometry x="430" y="87" width="120" height="60" as="geometry" />
        </mxCell>
        <mxCell id="1lI46nXgrd9c-tzyUQ7b-6" value="" style="endArrow=classic;html=1;" edge="1" parent="1">
          <mxGeometry width="50" height="50" relative="1" as="geometry">
            <mxPoint x="320" y="97" as="sourcePoint" />
            <mxPoint x="420" y="97" as="targetPoint" />
          </mxGeometry>
        </mxCell>
        <mxCell id="1lI46nXgrd9c-tzyUQ7b-7" value="&lt;font style=&quot;font-size: 14px&quot;&gt;start: int&amp;nbsp; end: int&lt;/font&gt;" style="text;html=1;strokeColor=none;fillColor=none;align=center;verticalAlign=middle;whiteSpace=wrap;rounded=0;" vertex="1" parent="1">
          <mxGeometry x="320" y="75" width="112" height="20" as="geometry" />
        </mxCell>
        <mxCell id="1lI46nXgrd9c-tzyUQ7b-8" value="" style="endArrow=classic;html=1;" edge="1" parent="1">
          <mxGeometry width="50" height="50" relative="1" as="geometry">
            <mxPoint x="417" y="121.5" as="sourcePoint" />
            <mxPoint x="317" y="121.5" as="targetPoint" />
          </mxGeometry>
        </mxCell>
        <mxCell id="1lI46nXgrd9c-tzyUQ7b-9" value="&lt;font style=&quot;font-size: 14px&quot;&gt;isValid: bool&lt;/font&gt;" style="text;html=1;strokeColor=none;fillColor=none;align=center;verticalAlign=middle;whiteSpace=wrap;rounded=0;" vertex="1" parent="1">
          <mxGeometry x="324" y="126" width="90" height="20" as="geometry" />
        </mxCell>
        <mxCell id="1lI46nXgrd9c-tzyUQ7b-16" value="&lt;font style=&quot;font-size: 14px&quot;&gt;generateAllLines&lt;/font&gt;" style="rounded=0;whiteSpace=wrap;html=1;" vertex="1" parent="1">
          <mxGeometry x="433.5" y="208" width="120" height="60" as="geometry" />
        </mxCell>
        <mxCell id="1lI46nXgrd9c-tzyUQ7b-17" value="" style="endArrow=classic;html=1;" edge="1" parent="1">
          <mxGeometry width="50" height="50" relative="1" as="geometry">
            <mxPoint x="321.5" y="219" as="sourcePoint" />
            <mxPoint x="421.5" y="219" as="targetPoint" />
          </mxGeometry>
        </mxCell>
        <mxCell id="1lI46nXgrd9c-tzyUQ7b-18" value="&lt;font style=&quot;font-size: 14px&quot;&gt;start: int&amp;nbsp; end: int&lt;/font&gt;" style="text;html=1;strokeColor=none;fillColor=none;align=center;verticalAlign=middle;whiteSpace=wrap;rounded=0;" vertex="1" parent="1">
          <mxGeometry x="321.5" y="197" width="112" height="20" as="geometry" />
        </mxCell>
        <mxCell id="1lI46nXgrd9c-tzyUQ7b-19" value="" style="endArrow=classic;html=1;" edge="1" parent="1">
          <mxGeometry width="50" height="50" relative="1" as="geometry">
            <mxPoint x="418.5" y="243.5" as="sourcePoint" />
            <mxPoint x="318.5" y="243.5" as="targetPoint" />
          </mxGeometry>
        </mxCell>
        <mxCell id="1lI46nXgrd9c-tzyUQ7b-20" value="&lt;font style=&quot;font-size: 14px&quot;&gt;table: string&lt;/font&gt;" style="text;html=1;strokeColor=none;fillColor=none;align=center;verticalAlign=middle;whiteSpace=wrap;rounded=0;" vertex="1" parent="1">
          <mxGeometry x="325.5" y="248" width="90" height="20" as="geometry" />
        </mxCell>
        <mxCell id="1lI46nXgrd9c-tzyUQ7b-21" value="" style="endArrow=classic;html=1;" edge="1" parent="1">
          <mxGeometry width="50" height="50" relative="1" as="geometry">
            <mxPoint x="170" y="227" as="sourcePoint" />
            <mxPoint x="60" y="226.5" as="targetPoint" />
          </mxGeometry>
        </mxCell>
        <mxCell id="1lI46nXgrd9c-tzyUQ7b-22" value="&lt;font style=&quot;font-size: 14px&quot;&gt;multiplicationTable: string&lt;/font&gt;" style="text;html=1;strokeColor=none;fillColor=none;align=center;verticalAlign=middle;whiteSpace=wrap;rounded=0;" vertex="1" parent="1">
          <mxGeometry x="70" y="240" width="90" height="20" as="geometry" />
        </mxCell>
        <mxCell id="1lI46nXgrd9c-tzyUQ7b-24" value="&lt;font style=&quot;font-size: 14px&quot;&gt;generateLine&lt;/font&gt;" style="rounded=0;whiteSpace=wrap;html=1;" vertex="1" parent="1">
          <mxGeometry x="660" y="208" width="120" height="60" as="geometry" />
        </mxCell>
        <mxCell id="1lI46nXgrd9c-tzyUQ7b-25" value="&lt;font style=&quot;font-size: 14px&quot;&gt;lineStart: int&lt;br&gt;lineEnd: int&lt;/font&gt;" style="text;html=1;strokeColor=none;fillColor=none;align=center;verticalAlign=middle;whiteSpace=wrap;rounded=0;" vertex="1" parent="1">
          <mxGeometry x="560" y="197" width="85.5" height="20" as="geometry" />
        </mxCell>
        <mxCell id="1lI46nXgrd9c-tzyUQ7b-26" value="" style="endArrow=classic;html=1;" edge="1" parent="1">
          <mxGeometry width="50" height="50" relative="1" as="geometry">
            <mxPoint x="560" y="226.5" as="sourcePoint" />
            <mxPoint x="650" y="227" as="targetPoint" />
          </mxGeometry>
        </mxCell>
        <mxCell id="1lI46nXgrd9c-tzyUQ7b-27" value="" style="endArrow=classic;html=1;" edge="1" parent="1">
          <mxGeometry width="50" height="50" relative="1" as="geometry">
            <mxPoint x="645.5" y="248" as="sourcePoint" />
            <mxPoint x="558.25" y="248" as="targetPoint" />
          </mxGeometry>
        </mxCell>
        <mxCell id="1lI46nXgrd9c-tzyUQ7b-28" value="&lt;font style=&quot;font-size: 14px&quot;&gt;oneLine: string&lt;/font&gt;" style="text;html=1;strokeColor=none;fillColor=none;align=center;verticalAlign=middle;whiteSpace=wrap;rounded=0;" vertex="1" parent="1">
          <mxGeometry x="557.75" y="257" width="90" height="20" as="geometry" />
        </mxCell>
        <mxCell id="1lI46nXgrd9c-tzyUQ7b-30" value="&lt;span style=&quot;text-align: left&quot;&gt;&lt;font style=&quot;font-size: 14px&quot;&gt;generateExpression&lt;/font&gt;&lt;/span&gt;" style="rounded=0;whiteSpace=wrap;html=1;" vertex="1" parent="1">
          <mxGeometry x="900" y="208" width="140" height="60" as="geometry" />
        </mxCell>
        <mxCell id="1lI46nXgrd9c-tzyUQ7b-31" value="&lt;font style=&quot;font-size: 14px&quot;&gt;multiplicand: int&lt;br&gt;multiplier: int&lt;/font&gt;" style="text;html=1;strokeColor=none;fillColor=none;align=center;verticalAlign=middle;whiteSpace=wrap;rounded=0;" vertex="1" parent="1">
          <mxGeometry x="796" y="197" width="100" height="20" as="geometry" />
        </mxCell>
        <mxCell id="1lI46nXgrd9c-tzyUQ7b-32" value="" style="endArrow=classic;html=1;" edge="1" parent="1">
          <mxGeometry width="50" height="50" relative="1" as="geometry">
            <mxPoint x="796" y="226.5" as="sourcePoint" />
            <mxPoint x="886" y="227" as="targetPoint" />
          </mxGeometry>
        </mxCell>
        <mxCell id="1lI46nXgrd9c-tzyUQ7b-33" value="" style="endArrow=classic;html=1;" edge="1" parent="1">
          <mxGeometry width="50" height="50" relative="1" as="geometry">
            <mxPoint x="883.75" y="248" as="sourcePoint" />
            <mxPoint x="796.5" y="248" as="targetPoint" />
          </mxGeometry>
        </mxCell>
        <mxCell id="1lI46nXgrd9c-tzyUQ7b-34" value="&lt;font style=&quot;font-size: 14px&quot;&gt;&lt;span style=&quot;text-align: left&quot;&gt;expression&lt;/span&gt;: string&lt;/font&gt;" style="text;html=1;strokeColor=none;fillColor=none;align=center;verticalAlign=middle;whiteSpace=wrap;rounded=0;" vertex="1" parent="1">
          <mxGeometry x="796" y="257" width="90" height="20" as="geometry" />
        </mxCell>
      </root>
    </mxGraphModel>
  </diagram>
</mxfile>
